# xmcd
#
# Track frame offsets:
# 150
# 19495
# 33723
# 68432
# 85998
# 103608
# 119885
# 134450
# 155198
# 177106
# 195683
# 211940
# 222595
# 239815
# 257504
# 273110
# 292837
# 312596
#
# Disc length: 4422 seconds
#
#
# Revision: 0
# Processed by: cddbd v1.5.1PL0 Copyright (c) Steve Scherf et al.
# Submitted via: FreeRIP 2.60 
#
DISCID=1b114412
DTITLE=Various Artist - Best Of The Green Mountain Blues Volume 2   Disc1
DYEAR=1900
DGENRE=blues
TTITLE0=North End Rythm Kinds - The Good Stuff
TTITLE1=The Sandra Wright Band - Chicago Blues
TTITLE2=The Unknown Blues Band - Going To New Orleans
TTITLE3=Bloozotomy - Blues Was In My Head
TTITLE4=The Seth Yacovone Blues Band - Bobfred
TTITLE5=Blues For Breakfast - The Mechanic
TTITLE6=Phil Abair - How Much Blues
TTITLE7=East Coast Muscle - Blackout Blues
TTITLE8=Christine Adler - The Woman In Me
TTITLE9=Mark Galbo - Telephone Song
TTITLE10=Laura Simon - Telephone Song
TTITLE11=John Savlov - Living's Just a Word
TTITLE12=Smokin' Grass - Opus #1
TTITLE13=Derrick Semler - Settle Down
TTITLE14=The Bad Neighbors - You Wouldn't
TTITLE15=Dave Keller Blues Band - Blue Jean Gal
TTITLE16=Roger Lynam - Dangerous Curves
TTITLE17=The Disciples - Bob's Truck
EXTD=Proceeds benefit camp Ta-Kum-Ta, a summer camp\nfor children with cancer.
EXTT0=
EXTT1=
EXTT2=
EXTT3=
EXTT4=
EXTT5=
EXTT6=
EXTT7=
EXTT8=
EXTT9=
EXTT10=
EXTT11=
EXTT12=
EXTT13=
EXTT14=
EXTT15=
EXTT16=
EXTT17=
PLAYORDER=
